<svg width="220" height="87" viewBox="0 0 220 87" fill="none" xmlns="http://www.w3.org/2000/svg">
<ellipse cx="110" cy="43.5" rx="110" ry="43.5" fill="#111111"/>
<path d="M52.788 57.216C51.156 57.216 49.908 56.82 49.044 56.028C48.18 55.212 47.748 54.072 47.748 52.608C47.748 51.888 47.832 51.204 48 50.556L51.852 32.52L57.18 31.8L55.452 39.9C56.124 39.492 56.676 39.228 57.108 39.108C57.54 38.964 57.972 38.892 58.404 38.892C61.236 38.892 62.652 40.944 62.652 45.048C62.652 46.704 62.328 48.48 61.68 50.376C61.056 52.248 60 53.856 58.512 55.2C57.048 56.544 55.14 57.216 52.788 57.216ZM54.804 53.724C55.548 53.724 56.244 53.268 56.892 52.356C57.54 51.42 58.056 50.268 58.44 48.9C58.824 47.508 59.016 46.176 59.016 44.904C59.016 43.944 58.848 43.128 58.512 42.456C58.176 41.784 57.708 41.448 57.108 41.448C56.748 41.448 56.34 41.508 55.884 41.628C55.452 41.724 55.152 41.88 54.984 42.096L53.004 51.24C52.932 51.528 52.896 51.804 52.896 52.068C52.896 53.172 53.532 53.724 54.804 53.724ZM67.5601 57.216C66.4081 57.216 65.4721 56.856 64.7521 56.136C64.0561 55.416 63.7081 54.336 63.7081 52.896C63.7081 52.296 63.8041 51.516 63.9961 50.556L67.8481 32.52L73.1761 31.8L69.0361 51.24C68.9401 51.6 68.8921 51.984 68.8921 52.392C68.8921 52.872 69.0001 53.22 69.2161 53.436C69.4561 53.628 69.8401 53.724 70.3681 53.724C71.0641 53.724 71.7121 53.436 72.3121 52.86C72.9121 52.26 73.3441 51.492 73.6081 50.556H75.1201C74.2321 53.148 73.0921 54.912 71.7001 55.848C70.3081 56.76 68.9281 57.216 67.5601 57.216ZM79.6058 37.056C78.8138 37.056 78.1418 36.78 77.5898 36.228C77.0378 35.676 76.7618 35.004 76.7618 34.212C76.7618 33.42 77.0378 32.748 77.5898 32.196C78.1418 31.62 78.8138 31.332 79.6058 31.332C80.3978 31.332 81.0698 31.62 81.6218 32.196C82.1978 32.748 82.4858 33.42 82.4858 34.212C82.4858 35.004 82.1978 35.676 81.6218 36.228C81.0698 36.78 80.3978 37.056 79.6058 37.056ZM77.1578 57.216C76.0058 57.216 75.0698 56.856 74.3498 56.136C73.6538 55.416 73.3057 54.336 73.3057 52.896C73.3057 52.296 73.4017 51.516 73.5938 50.556L76.0418 39H81.2258L78.6338 51.24C78.5378 51.6 78.4898 51.984 78.4898 52.392C78.4898 52.872 78.5978 53.22 78.8138 53.436C79.0538 53.628 79.4378 53.724 79.9658 53.724C80.6618 53.724 81.3098 53.436 81.9098 52.86C82.5098 52.26 82.9418 51.492 83.2058 50.556H84.7178C83.8298 53.148 82.6898 54.912 81.2978 55.848C79.9058 56.76 78.5258 57.216 77.1578 57.216ZM86.5754 57.216C85.3514 57.216 84.4394 56.844 83.8394 56.1C83.2634 55.356 82.9754 54.372 82.9754 53.148C82.9754 52.524 83.0474 51.888 83.1914 51.24L85.4954 40.44H84.3074L84.5954 39H85.7834L86.8634 34.032L92.1914 33.312C91.9754 34.224 91.8554 34.764 91.8314 34.932C91.6634 35.604 91.3754 36.96 90.9674 39H93.1274L92.8394 40.44H90.6794L88.3754 51.24C88.2554 51.768 88.1954 52.188 88.1954 52.5C88.1954 53.364 88.6154 53.796 89.4554 53.796C89.8874 53.796 90.1994 53.76 90.3914 53.688C89.9114 55.08 89.3474 56.016 88.6994 56.496C88.0514 56.976 87.3434 57.216 86.5754 57.216ZM102.307 40.944H100.291C99.6194 40.944 99.1154 40.98 98.7794 41.052C98.4674 41.124 98.3114 41.28 98.3114 41.52C98.3114 41.568 98.3714 41.628 98.4914 41.7C98.6354 41.748 98.7074 41.952 98.7074 42.312C98.7074 42.936 98.5154 43.416 98.1314 43.752C97.7474 44.064 97.2914 44.22 96.7634 44.22C96.3074 44.22 95.9114 44.088 95.5754 43.824C95.2634 43.536 95.1074 43.14 95.1074 42.636C95.1074 42.132 95.2754 41.592 95.6114 41.016C95.9714 40.44 96.4634 39.96 97.0874 39.576C97.7354 39.192 98.4674 39 99.2834 39H108.535L99.7154 54.228C99.8594 54.228 100.123 54.252 100.507 54.3C101.323 54.396 101.971 54.444 102.451 54.444C103.483 54.444 104.047 54.204 104.143 53.724C103.927 53.7 103.759 53.628 103.639 53.508C103.519 53.364 103.459 53.184 103.459 52.968C103.459 52.584 103.639 52.236 103.999 51.924C104.359 51.588 104.851 51.42 105.475 51.42C106.003 51.42 106.399 51.576 106.663 51.888C106.927 52.2 107.059 52.62 107.059 53.148C107.059 53.724 106.879 54.312 106.519 54.912C106.159 55.512 105.643 56.016 104.971 56.424C104.299 56.808 103.531 57 102.667 57H93.1274L102.307 40.944ZM126.863 61.068C125.879 61.068 125.087 60.864 124.487 60.456C123.887 60.072 123.431 59.58 123.119 58.98C122.831 58.404 122.531 57.648 122.219 56.712C121.139 57.048 120.023 57.216 118.871 57.216C116.855 57.216 115.271 56.64 114.119 55.488C112.991 54.336 112.427 52.5 112.427 49.98C112.427 47.844 112.811 45.444 113.579 42.78C114.347 40.116 115.463 37.836 116.927 35.94C118.415 34.044 120.167 33.096 122.183 33.096C122.903 33.096 123.527 33.192 124.055 33.384C122.999 34.008 121.979 35.292 120.995 37.236C120.035 39.18 119.255 41.352 118.655 43.752C118.055 46.152 117.755 48.276 117.755 50.124V50.772C117.755 51.18 117.779 51.48 117.827 51.672C118.691 51.456 119.435 51.348 120.059 51.348C121.139 51.348 122.099 51.672 122.939 52.32C124.163 50.736 125.207 48.588 126.071 45.876C126.935 43.14 127.367 40.5 127.367 37.956C127.367 36.468 127.235 35.28 126.971 34.392C126.731 33.48 126.275 32.796 125.603 32.34C124.931 31.884 123.983 31.656 122.759 31.656C120.911 31.656 119.195 32.04 117.611 32.808C116.027 33.552 114.755 34.632 113.795 36.048C112.859 37.44 112.391 39.06 112.391 40.908C112.391 41.556 112.451 42.036 112.571 42.348C112.691 42.636 112.751 42.804 112.751 42.852C111.551 42.852 110.639 42.612 110.015 42.132C109.415 41.652 109.115 40.884 109.115 39.828C109.115 38.172 109.787 36.588 111.131 35.076C112.499 33.564 114.299 32.34 116.531 31.404C118.787 30.468 121.151 30 123.623 30C126.623 30 128.795 30.816 130.139 32.448C131.483 34.08 132.155 36.336 132.155 39.216C132.155 40.992 131.903 42.9 131.399 44.94C130.895 46.956 130.127 48.876 129.095 50.7C128.063 52.524 126.791 54 125.279 55.128C125.903 56.064 126.551 56.784 127.223 57.288C127.895 57.792 128.747 58.044 129.779 58.044C129.923 58.044 130.187 58.02 130.571 57.972C130.115 59.148 129.587 59.952 128.987 60.384C128.411 60.84 127.703 61.068 126.863 61.068ZM119.843 54.3C120.371 54.3 120.827 54.168 121.211 53.904C120.731 53.088 120.047 52.68 119.159 52.68C118.775 52.68 118.427 52.728 118.115 52.824C118.451 53.808 119.027 54.3 119.843 54.3ZM136.044 57.216C134.892 57.216 133.956 56.856 133.236 56.136C132.54 55.416 132.192 54.336 132.192 52.896C132.192 52.296 132.288 51.516 132.48 50.556L134.928 39H140.112L137.52 51.24C137.448 51.6 137.412 51.936 137.412 52.248C137.412 53.232 137.772 53.724 138.492 53.724C139.164 53.724 139.74 53.448 140.22 52.896C140.7 52.32 141.084 51.54 141.372 50.556L143.82 39H149.004L146.412 51.24C146.316 51.6 146.268 51.984 146.268 52.392C146.268 52.872 146.376 53.22 146.592 53.436C146.832 53.628 147.216 53.724 147.744 53.724C148.416 53.724 148.992 53.436 149.472 52.86C149.976 52.284 150.372 51.516 150.66 50.556H152.172C151.284 53.148 150.18 54.912 148.86 55.848C147.564 56.76 146.256 57.216 144.936 57.216C143.904 57.216 143.076 56.928 142.452 56.352C141.852 55.776 141.492 54.924 141.372 53.796C140.556 55.116 139.692 56.016 138.78 56.496C137.892 56.976 136.98 57.216 136.044 57.216ZM156.668 37.056C155.876 37.056 155.204 36.78 154.652 36.228C154.1 35.676 153.824 35.004 153.824 34.212C153.824 33.42 154.1 32.748 154.652 32.196C155.204 31.62 155.876 31.332 156.668 31.332C157.46 31.332 158.132 31.62 158.684 32.196C159.26 32.748 159.548 33.42 159.548 34.212C159.548 35.004 159.26 35.676 158.684 36.228C158.132 36.78 157.46 37.056 156.668 37.056ZM154.22 57.216C153.068 57.216 152.132 56.856 151.412 56.136C150.716 55.416 150.368 54.336 150.368 52.896C150.368 52.296 150.464 51.516 150.656 50.556L153.104 39H158.288L155.696 51.24C155.6 51.6 155.552 51.984 155.552 52.392C155.552 52.872 155.66 53.22 155.876 53.436C156.116 53.628 156.5 53.724 157.028 53.724C157.46 53.724 157.844 53.652 158.18 53.508C158.084 54.708 157.652 55.632 156.884 56.28C156.14 56.904 155.252 57.216 154.22 57.216ZM167.36 40.944H165.344C164.672 40.944 164.168 40.98 163.832 41.052C163.52 41.124 163.364 41.28 163.364 41.52C163.364 41.568 163.424 41.628 163.544 41.7C163.688 41.748 163.76 41.952 163.76 42.312C163.76 42.936 163.568 43.416 163.184 43.752C162.8 44.064 162.344 44.22 161.816 44.22C161.36 44.22 160.964 44.088 160.628 43.824C160.316 43.536 160.16 43.14 160.16 42.636C160.16 42.132 160.328 41.592 160.664 41.016C161.024 40.44 161.516 39.96 162.14 39.576C162.788 39.192 163.52 39 164.336 39H173.588L164.768 54.228C164.912 54.228 165.176 54.252 165.56 54.3C166.376 54.396 167.024 54.444 167.504 54.444C168.536 54.444 169.1 54.204 169.196 53.724C168.98 53.7 168.812 53.628 168.692 53.508C168.572 53.364 168.512 53.184 168.512 52.968C168.512 52.584 168.692 52.236 169.052 51.924C169.412 51.588 169.904 51.42 170.528 51.42C171.056 51.42 171.452 51.576 171.716 51.888C171.98 52.2 172.112 52.62 172.112 53.148C172.112 53.724 171.932 54.312 171.572 54.912C171.212 55.512 170.696 56.016 170.024 56.424C169.352 56.808 168.584 57 167.72 57H158.18L167.36 40.944Z" fill="#F5F5F5"/>
<path d="M113 16V17L124 21L133 17V16L122 13L113 16Z" fill="white"/>
<path d="M115 20V24.267C115 25.888 119.001 28.16 124 28.001C128 27.875 130.586 26.029 131 24.534C131.024 24.445 131.037 24.356 131.037 24.266V20L124 23L119 21.333V24.546L118 24.182V21L115 20Z" fill="white"/>
</svg>
